<svg width="42" height="42" viewBox="0 0 42 42" fill="none" xmlns="http://www.w3.org/2000/svg">
<rect width="42" height="42" rx="12" fill="#FF6943"/>
<path d="M17.4608 28.2475C17.4608 26.6677 17.4352 25.1126 17.4608 23.5328C17.4608 23.1132 17.3326 23.0391 16.9481 23.0638C16.2303 23.0885 15.5381 23.0638 14.8203 23.0638C14.2564 23.0638 14 22.8416 14 22.2739C14 21.2125 14 20.1511 14 19.1143C14 18.5466 14.2307 18.3244 14.8203 18.3244C15.5638 18.3244 16.3072 18.2998 17.0763 18.3244C17.3839 18.3244 17.4865 18.2504 17.4865 17.9542C17.4865 16.6459 17.4096 15.3377 17.5377 14.0047C17.7941 11.092 19.9218 9.11725 22.9725 9.01851C24.0236 8.99383 25.0746 8.99383 26.1513 9.01851C26.6384 9.01851 26.8948 9.26535 26.8948 9.73435C26.8948 10.6477 26.8948 11.561 26.8948 12.4743C26.8948 12.9927 26.664 13.2148 26.1001 13.2148C25.613 13.2148 25.1259 13.2148 24.6645 13.2148C24.4594 13.2148 24.2286 13.2148 24.0236 13.2395C22.87 13.3382 22.2547 13.906 22.2034 15.0168C22.1778 16.0288 22.2034 17.0409 22.1778 18.0776C22.1778 18.3491 22.3316 18.3244 22.5111 18.3244C23.6903 18.3244 24.8952 18.3244 26.0744 18.3244C26.8435 18.3244 27.0742 18.5713 26.9973 19.2871C26.8691 20.3239 26.7409 21.3606 26.6128 22.3973C26.5615 22.8663 26.3308 23.0885 25.8181 23.0885C24.7414 23.0885 23.6647 23.1132 22.6136 23.0885C22.2803 23.0885 22.1778 23.1625 22.1778 23.4834C22.1778 26.6677 22.1778 29.852 22.1778 33.0362C22.1778 33.6533 22.0496 33.7767 21.4087 33.7767C20.3064 33.7767 19.204 33.7767 18.1273 33.7767C17.6146 33.7767 17.4608 33.6286 17.4608 33.1349C17.4608 31.5058 17.4608 29.8766 17.4608 28.2475Z" fill="white"/>
</svg>
