<svg width="42" height="42" viewBox="0 0 42 42" fill="none" xmlns="http://www.w3.org/2000/svg">
<rect width="42" height="42" rx="12" fill="#FF6943"/>
<path d="M26.8568 16.662C26.8568 17.9801 26.8388 19.2907 26.8657 20.6087C26.8927 21.7246 26.7579 22.8255 26.4883 23.9114C26.1377 25.2894 25.4547 26.5476 24.3672 27.656C23.5763 28.4648 22.6775 29.1912 21.7787 29.9102C21.3833 30.2247 20.9249 30.4794 20.5025 30.7639C20.0441 31.071 19.6666 31.041 19.3251 30.6291C18.4713 29.6181 17.5366 28.6595 16.6288 27.6859C15.9188 26.922 15.9278 26.937 16.8535 26.3529C18.2735 25.4467 19.388 24.3158 20.134 22.9453C20.3137 22.6158 20.4935 22.2788 20.5205 21.9118C20.5474 21.6422 20.4845 21.4775 20.0621 21.4775C18.5522 21.4999 17.0422 21.485 15.5323 21.485C14.9751 21.485 14.7863 21.3352 14.7863 20.8709C14.7863 17.8003 14.7953 14.7223 14.7773 11.6518C14.7773 11.15 14.9841 10.9928 15.5503 11.0003C19.0914 11.0152 22.6236 11.0077 26.1647 11.0077C26.677 11.0077 26.8657 11.1575 26.8657 11.5844C26.8568 13.2694 26.8568 14.9695 26.8568 16.662Z" fill="white"/>
</svg>
